<svg width="164" height="99" viewBox="0 0 164 99" fill="none" xmlns="http://www.w3.org/2000/svg">
<path d="M98.4854 66.0442V60.1279H99.3559V62.3423L99.3305 62.3677V65.3004H102.196C102.511 65.3004 102.779 65.2497 102.999 65.1483C103.218 65.0469 103.385 64.906 103.497 64.7257C103.61 64.5454 103.666 64.3341 103.666 64.0918C103.666 63.8495 103.61 63.6382 103.497 63.4579C103.385 63.272 103.218 63.1283 102.999 63.0269C102.779 62.9255 102.511 62.8748 102.196 62.8748H99.0685V62.131H102.196C102.703 62.131 103.131 62.2127 103.48 62.3761C103.83 62.5395 104.092 62.7677 104.266 63.0607C104.447 63.3537 104.537 63.6974 104.537 64.0918C104.537 64.4806 104.447 64.8215 104.266 65.1145C104.092 65.4075 103.83 65.6357 103.48 65.7991C103.131 65.9625 102.703 66.0442 102.196 66.0442H98.4854Z" fill="#202020"/>
<path d="M91.9448 66.1445C91.1447 66.1445 90.4601 66.0121 89.891 65.7473C89.3219 65.4824 88.888 65.119 88.5894 64.657C88.2964 64.1893 88.1499 63.6653 88.1499 63.0849C88.1499 62.5046 88.2964 61.9834 88.5894 61.5214C88.888 61.0537 89.3219 60.6874 89.891 60.4226C90.4601 60.1578 91.1447 60.0254 91.9448 60.0254C92.6942 60.0254 93.3365 60.1324 93.8718 60.3466C94.4071 60.555 94.8268 60.8424 95.1311 61.2086C95.441 61.5749 95.6438 61.989 95.7396 62.4511H94.8691C94.7902 62.1412 94.6353 61.8594 94.4042 61.6059C94.1732 61.3523 93.8521 61.1495 93.4407 60.9973C93.0294 60.8452 92.5308 60.7691 91.9448 60.7691C91.3306 60.7691 90.801 60.8706 90.3558 61.0734C89.9163 61.2763 89.5839 61.5523 89.3585 61.9017C89.1331 62.251 89.0204 62.6455 89.0204 63.0849C89.0204 63.5244 89.1331 63.9189 89.3585 64.2682C89.5839 64.6175 89.9163 64.8936 90.3558 65.0965C90.801 65.2993 91.3306 65.4007 91.9448 65.4007C92.5308 65.4007 93.0294 65.3247 93.4407 65.1725C93.8521 65.0204 94.1732 64.8176 94.4042 64.564C94.6353 64.3105 94.7902 64.0287 94.8691 63.7188H95.7396C95.6495 64.1978 95.4523 64.6175 95.148 64.9781C94.8494 65.3388 94.4296 65.6233 93.8887 65.8318C93.3534 66.0403 92.7054 66.1445 91.9448 66.1445Z" fill="#202020"/>
<path d="M80.0327 66.0442V60.1279H85.6954V60.8717H80.9033V65.3004H85.6954V66.0442H80.0327ZM80.7849 63.3903V62.6888H85.1038V63.3903H80.7849Z" fill="#202020"/>
<path d="M69.5659 67.5233V65.3004H69.9209C70.1519 65.3004 70.3378 65.2216 70.4787 65.0638C70.6252 64.906 70.7182 64.6468 70.7576 64.2862L71.2309 60.1279H76.5218V65.3004H77.4515V67.5233H76.6063V66.0442H70.4111V67.5233H69.5659ZM70.7576 65.4019V65.3004H75.6766V60.8717H72L71.6282 64.2102C71.5831 64.6271 71.4873 64.9314 71.3408 65.1229C71.1999 65.3089 71.0055 65.4019 70.7576 65.4019Z" fill="#202020"/>
<path d="M64.386 66.1445C63.6309 66.1445 63.0111 66.06 62.5266 65.8909C62.0476 65.7219 61.6983 65.4937 61.4785 65.2063C61.2588 64.9134 61.1489 64.5809 61.1489 64.209V64.0569H62.0195V64.209C62.0195 64.4175 62.0983 64.6119 62.2561 64.7922C62.4139 64.9725 62.6703 65.119 63.0252 65.2317C63.3802 65.3444 63.8338 65.4007 64.386 65.4007C65.2481 65.4007 65.8566 65.3078 66.2116 65.1218C66.5665 64.9303 66.744 64.6795 66.744 64.3696C66.744 64.0823 66.5919 63.8484 66.2876 63.6681C65.989 63.4878 65.4932 63.3977 64.8001 63.3977H63.1858V62.6962H64.8001C65.4537 62.6962 65.927 62.6088 66.22 62.4342C66.513 62.2539 66.6595 62.0285 66.6595 61.758C66.6595 61.5777 66.5891 61.4143 66.4482 61.2678C66.3073 61.1213 66.0679 61.003 65.7298 60.9128C65.3917 60.817 64.9438 60.7691 64.386 60.7691C63.8563 60.7691 63.4196 60.8255 63.0759 60.9382C62.7379 61.0509 62.4899 61.1974 62.3322 61.3777C62.18 61.558 62.104 61.7524 62.104 61.9609V62.0707H61.2334V61.9355C61.2334 61.5749 61.3405 61.2509 61.5546 60.9635C61.7744 60.6762 62.1181 60.448 62.5857 60.2789C63.059 60.1099 63.6591 60.0254 64.386 60.0254C65.1354 60.0254 65.7439 60.0986 66.2116 60.2451C66.6792 60.3916 67.0145 60.586 67.2173 60.8283C67.4258 61.065 67.53 61.3298 67.53 61.6228C67.53 61.8763 67.4652 62.1045 67.3356 62.3074C67.2117 62.5046 67.0286 62.6624 66.7863 62.7807C66.544 62.8934 66.2538 62.9497 65.9157 62.9497H65.7805L66.1947 62.7046V63.3047L65.7805 63.0596H65.9411C66.2904 63.0596 66.5891 63.1216 66.837 63.2455C67.0905 63.3639 67.2821 63.5273 67.4117 63.7357C67.5469 63.9442 67.6146 64.1809 67.6146 64.4457C67.6146 64.7781 67.5131 65.0711 67.3103 65.3247C67.1074 65.5782 66.7666 65.7783 66.2876 65.9248C65.8087 66.0712 65.1748 66.1445 64.386 66.1445Z" fill="#202020"/>
<path fill-rule="evenodd" clip-rule="evenodd" d="M38.2118 53.9695L38.2105 53.9677C37.3469 52.7734 36.9219 51.3964 36.9219 49.8504C36.9219 48.3048 37.3467 46.9337 38.2112 45.7513C39.072 44.5612 40.2754 43.637 41.8087 42.9798C43.3452 42.3211 45.1135 41.998 47.1008 41.998C49.0881 41.998 50.8564 42.3211 52.393 42.9798C53.9262 43.637 55.1297 44.5613 55.9905 45.7514C56.855 46.9337 57.2798 48.3048 57.2798 49.8504C57.2798 51.3964 56.8548 52.7734 55.9911 53.9677L55.9898 53.9695C55.1286 55.1469 53.9252 56.0642 52.393 56.721C50.8564 57.3797 49.0881 57.7027 47.1008 57.7027C45.1135 57.7027 43.3452 57.3797 41.8087 56.721C40.2764 56.0642 39.073 55.1469 38.2118 53.9695ZM52.5449 52.4044L52.5464 52.4024C53.0518 51.6952 53.3136 50.8497 53.3136 49.8504C53.3136 48.8511 53.0518 48.0055 52.5464 47.2984L52.5449 47.2963L52.5434 47.2942C52.0496 46.5842 51.3512 46.036 50.4352 45.6474C49.5206 45.2593 48.4142 45.0572 47.1008 45.0572C45.8042 45.0572 44.6968 45.2587 43.7652 45.6479C42.8497 46.0365 42.1432 46.5851 41.6342 47.2963C41.1428 48.0037 40.8881 48.8501 40.8881 49.8504C40.8881 50.8506 41.1428 51.697 41.6342 52.4044C42.1431 53.1156 42.8495 53.6641 43.7649 54.0527C44.6966 54.442 45.8041 54.6435 47.1008 54.6435C48.4142 54.6435 49.5206 54.4415 50.4352 54.0534C51.3512 53.6647 52.0496 53.1166 52.5434 52.4065L52.5449 52.4044ZM43.5561 54.4104C42.5626 53.9889 41.7874 53.3886 41.2305 52.6094C40.6886 51.8302 40.4177 50.9106 40.4177 49.8504C40.4177 48.7902 40.6886 47.8705 41.2305 47.0914C41.7874 46.3122 42.5626 45.7119 43.5561 45.2903C44.5645 44.8688 45.7461 44.6581 47.1008 44.6581C48.4706 44.6581 49.6521 44.8688 50.6456 45.2903C51.639 45.7119 52.4067 46.3122 52.9485 47.0914C53.5055 47.8705 53.7839 48.7902 53.7839 49.8504C53.7839 50.9106 53.5055 51.8302 52.9485 52.6094C52.4067 53.3886 51.639 53.9889 50.6456 54.4104C49.6521 54.8319 48.4706 55.0427 47.1008 55.0427C45.7461 55.0427 44.5645 54.8319 43.5561 54.4104ZM42.0208 56.3647C43.4808 56.9906 45.1742 57.3035 47.1008 57.3035C49.0275 57.3035 50.7208 56.9906 52.1809 56.3647C53.6409 55.7388 54.7774 54.8702 55.5902 53.759C56.403 52.6349 56.8094 51.3321 56.8094 49.8504C56.8094 48.3687 56.403 47.0722 55.5902 45.9609C54.7774 44.8369 53.6409 43.9619 52.1809 43.336C50.7208 42.7102 49.0275 42.3972 47.1008 42.3972C45.1742 42.3972 43.4808 42.7102 42.0208 43.336C40.5607 43.9619 39.4243 44.8369 38.6115 45.9609C37.7987 47.0722 37.3923 48.3687 37.3923 49.8504C37.3923 51.3321 37.7987 52.6349 38.6115 53.759C39.4243 54.8702 40.5607 55.7388 42.0208 56.3647Z" fill="#202020"/>
<path d="M7.59876 43.6635H10.4065V57.6288H7.59876V43.6635ZM1.00488 42.4089H9.00262L17.0004 42.2881V44.7725H1.00488V42.4089Z" fill="#202020"/>
<path d="M46.8794 57.4111C44.9612 57.4111 43.2752 57.0997 41.8216 56.4769C40.3679 55.8542 39.2365 54.9899 38.4272 53.8842C37.618 52.7657 37.2134 51.4693 37.2134 49.995C37.2134 48.5207 37.618 47.2307 38.4272 46.1249C39.2365 45.0065 40.2092 43.9288 41.6628 43.306C43.1164 42.6832 44.9612 42.2881 46.8794 42.2881C48.7976 42.2881 50.8827 42.6832 52.3364 43.306C53.79 43.9288 54.969 44.9504 55.7782 46.0688C56.5875 47.1746 56.9896 48.5207 56.9896 49.995C56.9896 51.4693 56.3447 52.7657 55.5355 53.8842C54.7262 54.9899 53.2427 56.0612 51.7891 56.684C50.3354 57.3068 48.7976 57.4111 46.8794 57.4111ZM46.8794 54.9391C48.2431 54.9391 49.2657 54.7768 50.2548 54.3574C51.2439 53.938 52.1619 53.5156 52.7014 52.7403C53.2559 51.965 53.5332 51.0499 53.5332 49.995C53.5332 48.9401 53.2559 48.025 52.7014 47.2497C52.1619 46.4744 51.3977 45.8771 50.4086 45.4577C49.4195 45.0382 48.2431 44.8285 46.8794 44.8285C45.5306 44.8285 44.3542 45.0382 43.3502 45.4577C42.3611 45.8771 41.757 46.6023 41.2025 47.3776C40.663 48.1528 40.4354 48.9401 40.4354 49.995C40.4354 51.0499 40.8164 51.8372 41.3559 52.6124C41.9104 53.3877 42.5149 53.938 43.5039 54.3574C44.508 54.7768 45.5306 54.9391 46.8794 54.9391Z" fill="#202020"/>
<path d="M59.7388 57.4115V42.4805H62.597V52.1643C62.597 52.8895 62.5543 53.5081 62.469 54.02C62.3979 54.5177 62.2913 55.0581 62.1491 55.6411H62.4477L72.1528 42.4805H76.7815V57.4115H73.9232V47.7277C73.9232 47.0024 73.9588 46.391 74.0299 45.8933C74.101 45.3814 74.2147 44.8339 74.3712 44.2509H74.0512L64.3674 57.4115H59.7388Z" fill="#202020"/>
<path fill-rule="evenodd" clip-rule="evenodd" d="M59.2944 57.8559V42.0361H63.0414V52.1643C63.0414 52.9029 62.9982 53.5456 62.9082 54.088C62.8975 54.1627 62.8861 54.2382 62.8739 54.3145L71.9284 42.0361H77.2259V57.8559H73.4789V47.7277C73.4789 46.9903 73.5149 46.3567 73.5899 45.8315C73.6016 45.7469 73.6145 45.6615 73.6284 45.5753L64.5922 57.8559H59.2944ZM74.0513 44.2509H74.3712C74.3534 44.3172 74.3362 44.383 74.3195 44.4483C74.2983 44.5314 74.278 44.6137 74.2586 44.6953C74.2558 44.7069 74.2531 44.7185 74.2504 44.7301C74.1547 45.1363 74.0812 45.5241 74.0299 45.8933C73.9588 46.391 73.9233 47.0025 73.9233 47.7277V57.4115H76.7815V42.4805H72.1529L62.4477 55.6411H62.1491C62.1644 55.5782 62.1794 55.5158 62.1939 55.4539C62.2142 55.3672 62.2337 55.2815 62.2524 55.1968C62.2566 55.178 62.2607 55.1592 62.2647 55.1405C62.3506 54.7457 62.4187 54.3722 62.4691 54.02C62.5544 53.5081 62.597 52.8896 62.597 52.1643V42.4805H59.7388V57.4115H64.3674L74.0513 44.2509Z" fill="#202020"/>
<path d="M19.0229 57.4115V42.4805H30.2425C31.8778 42.4805 33.1079 42.8146 33.9326 43.483C34.7574 44.1371 35.1698 45.033 35.1698 46.1706C35.1698 46.8247 35.0276 47.3935 34.7432 47.877C34.473 48.3604 34.0819 48.7444 33.57 49.0288C33.0581 49.3132 32.4609 49.4696 31.7783 49.498L32.1409 48.6235V50.6712L31.757 49.818C32.9941 49.8464 33.9611 50.1806 34.6579 50.8205C35.3546 51.4604 35.703 52.3207 35.703 53.4014C35.703 54.2404 35.5111 54.9585 35.1271 55.5558C34.7432 56.153 34.1459 56.6152 33.3354 56.9422C32.5248 57.2551 31.4868 57.4115 30.2212 57.4115H19.0229ZM30.0719 55.0225C30.9678 55.0225 31.6361 54.8448 32.0769 54.4893C32.5177 54.1338 32.7381 53.6361 32.7381 52.9962C32.7381 52.342 32.5177 51.8372 32.0769 51.4817C31.6361 51.112 30.9678 50.9272 30.0719 50.9272H21.2199V48.7515H29.7946C30.5767 48.7515 31.1739 48.5809 31.5863 48.2396C31.9987 47.8841 32.2049 47.4077 32.2049 46.8105C32.2049 46.2132 31.9987 45.744 31.5863 45.4027C31.1739 45.0472 30.5767 44.8694 29.7946 44.8694H21.9238V55.0225H30.0719Z" fill="#202020"/>
<path fill-rule="evenodd" clip-rule="evenodd" d="M18.5786 57.8559V42.0361H30.2426C31.9264 42.0361 33.274 42.3783 34.2106 43.1363C35.1499 43.8821 35.6142 44.9107 35.6142 46.1706C35.6142 46.8888 35.4578 47.5367 35.1287 48.0981C34.816 48.6558 34.3642 49.096 33.7859 49.4173C33.6545 49.4902 33.5189 49.5554 33.379 49.613C33.9865 49.7965 34.5161 50.087 34.9585 50.4932C35.7603 51.2297 36.1474 52.2159 36.1474 53.4015C36.1474 54.3099 35.9388 55.115 35.5009 55.7961C35.0568 56.487 34.3776 57.0009 33.5017 57.3544L33.4986 57.3556L33.4954 57.3568C32.6162 57.6962 31.5187 57.8559 30.2212 57.8559H18.5786ZM32.5853 49.3963C32.9427 49.3175 33.2709 49.195 33.5701 49.0288C34.082 48.7444 34.473 48.3605 34.7432 47.877C35.0276 47.3935 35.1698 46.8247 35.1698 46.1706C35.1698 45.033 34.7574 44.1371 33.9327 43.483C33.1079 42.8147 31.8779 42.4805 30.2426 42.4805H19.023V57.4115H30.2212C31.4868 57.4115 32.5249 57.2551 33.3354 56.9423C34.146 56.6152 34.7432 56.153 35.1272 55.5558C35.5111 54.9586 35.7031 54.2405 35.7031 53.4015C35.7031 52.3208 35.3547 51.4604 34.6579 50.8205C34.125 50.3312 33.4342 50.0206 32.5853 49.8889C32.5466 49.8829 32.5075 49.8772 32.4681 49.8719C32.3989 49.8627 32.3288 49.8546 32.2576 49.8477C32.219 49.8439 32.1801 49.8404 32.1409 49.8374V49.47C32.1872 49.4647 32.233 49.4588 32.2784 49.4522C32.3386 49.4434 32.3979 49.4335 32.4565 49.4225C32.4999 49.4144 32.5428 49.4056 32.5853 49.3963ZM29.7946 48.7515C30.5767 48.7515 31.174 48.5809 31.5864 48.2396C31.9987 47.8841 32.2049 47.4077 32.2049 46.8105C32.2049 46.2133 31.9987 45.744 31.5864 45.4027C31.174 45.0472 30.5767 44.8695 29.7946 44.8695H21.9239V48.7515H29.7946ZM21.9239 55.0226H30.0719C30.9678 55.0226 31.6361 54.8448 32.077 54.4893C32.5178 54.1338 32.7382 53.6361 32.7382 52.9962C32.7382 52.3421 32.5178 51.8373 32.077 51.4818C31.6361 51.1121 30.9678 50.9272 30.0719 50.9272H21.9239V55.0226ZM22.3682 51.3716V54.5782H30.0719C30.9217 54.5782 31.4706 54.4074 31.798 54.1434C32.1198 53.8839 32.2938 53.5215 32.2938 52.9962C32.2938 52.4531 32.1173 52.0852 31.798 51.8277L31.7947 51.825L31.7914 51.8223C31.4646 51.5482 30.9186 51.3716 30.0719 51.3716H22.3682ZM22.3682 48.3072H29.7946C30.517 48.3072 30.9964 48.1493 31.2996 47.9001C31.6017 47.6381 31.7606 47.2908 31.7606 46.8105C31.7606 46.3284 31.6008 45.9915 31.303 45.7451L31.2996 45.7422L31.2962 45.7393C30.9935 45.4783 30.516 45.3138 29.7946 45.3138H22.3682V48.3072Z" fill="#202020"/>
<path fill-rule="evenodd" clip-rule="evenodd" d="M10.4051 44.7627V57.5726H7.59963V44.7627H1.01113V42.419H16.9935V44.7627H10.4051ZM7.15685 45.1837H0.568359V41.998H17.4363V45.1837H10.8478V57.9935H7.15685V45.1837Z" fill="#202020"/>
<path d="M90.6759 52.516C88.3188 52.516 86.3916 51.846 85.1447 50.7873C83.8977 49.7286 83.4546 48.1042 83.4546 46.0954V42.2881H86.6811V45.8894C86.6811 47.206 86.8761 48.2128 87.6972 48.905C88.5184 49.5836 89.7273 49.923 91.324 49.923C92.2364 49.923 93.1944 49.828 94.1981 49.6379C95.2017 49.4343 96.1978 49.1561 97.1862 48.8032L97.4362 51.2195C96.4326 51.6402 95.3538 51.853 94.1981 52.0838C93.0576 52.301 91.8164 52.516 90.6759 52.516ZM96.5144 57.7019V42.2881H99.7409V57.7019H96.5144Z" fill="#202020"/>
<path fill-rule="evenodd" clip-rule="evenodd" d="M83.1631 41.998H87.0397V45.9952C87.0397 47.2222 87.4143 48.0931 88.0977 48.6781C88.7847 49.253 89.8353 49.5749 91.3292 49.5749C92.1849 49.5749 93.0889 49.4846 94.042 49.3018C94.7495 49.1561 95.4536 48.9709 96.1545 48.746V41.998H100.031V57.9935H96.1545V51.9165C95.5274 52.1199 94.8754 52.29 94.1986 52.4271L94.1964 52.4275L94.1942 52.4279C93.0469 52.6495 91.8983 52.7605 90.7488 52.7605C88.3677 52.7605 86.4725 52.2175 85.138 51.0686C83.7994 49.916 83.1631 48.2689 83.1631 46.1973V41.998ZM96.1545 51.4684C96.3112 51.4158 96.4662 51.361 96.6195 51.304V57.5726H99.566V42.419H96.6195V49.0407C96.6177 49.0413 96.6158 49.042 96.614 49.0426C96.461 49.0942 96.3078 49.144 96.1545 49.1919C95.4871 49.4005 94.8162 49.5742 94.1418 49.7129C93.1596 49.9015 92.2221 49.9958 91.3292 49.9958C89.7667 49.9958 88.5836 49.659 87.78 48.9855C86.9764 48.2986 86.5746 47.3018 86.5746 45.9952V42.419H83.6281V46.1973C83.6281 48.1908 84.2383 49.7129 85.4585 50.7636C86.6788 51.8142 88.4422 52.3395 90.7488 52.3395C91.8649 52.3395 92.981 52.2318 94.0971 52.0163C94.8127 51.8714 95.4985 51.6888 96.1545 51.4684Z" fill="#202020"/>
<path d="M101.6 57.4115L109.023 42.4805H112.5L119.923 57.4115H116.787L111.668 46.8318C111.398 46.2488 111.206 45.7582 111.092 45.36C110.978 44.9619 110.921 44.6064 110.921 44.2935V44.2509H110.601V44.2935C110.601 44.6064 110.544 44.9619 110.431 45.36C110.317 45.7582 110.125 46.2488 109.855 46.8318L104.736 57.4115H101.6ZM104.778 54.6599L105.909 52.3349H115.635L116.68 54.6599H104.778Z" fill="#202020"/>
<path fill-rule="evenodd" clip-rule="evenodd" d="M100.883 57.8559L108.748 42.0361H112.775L120.64 57.8559H116.509L115.177 55.1043H106.346L105.015 57.8559H100.883ZM106.067 54.6599H115.456L116.787 57.4115H119.923L112.5 42.4805H109.023L101.6 57.4115H104.736L106.067 54.6599ZM111.668 46.8318C111.398 46.2488 111.206 45.7582 111.092 45.3601C111.049 45.2094 111.014 45.0648 110.988 44.9264C110.944 44.6989 110.922 44.488 110.922 44.2936V44.2509H110.602V44.2936C110.602 44.488 110.58 44.6989 110.536 44.9264C110.509 45.0648 110.474 45.2094 110.431 45.3601C110.317 45.7582 110.125 46.2488 109.855 46.8318L107.192 52.335H114.331L111.668 46.8318ZM113.622 51.8906L111.267 47.022L111.265 47.0187C111.053 46.5608 110.884 46.1506 110.762 45.7901C110.639 46.1506 110.471 46.5608 110.258 47.0187L110.257 47.022L107.901 51.8906H113.622Z" fill="#202020"/>
<path d="M139.729 51.74C139.575 52.978 138.928 54.3406 138.08 55.2961C137.248 56.2381 136.153 56.9715 134.796 57.4963C133.44 58.0212 131.89 58.2836 130.148 58.2836C128.206 58.2836 126.502 57.9539 125.037 57.2945C123.573 56.6351 122.432 55.72 121.615 54.5492C120.798 53.3649 120.098 52.1377 120.098 50.5767C120.098 49.0156 120.444 47.385 121.261 46.2143C122.079 45.03 123.287 43.9654 124.751 43.306C126.216 42.6466 128.182 42.2881 130.125 42.2881C131.867 42.2881 133.574 42.4903 134.93 43.0152C136.287 43.54 137.442 44.5033 138.275 45.4453C139.123 46.3873 139.72 47.6052 139.874 48.8567H136.508C136.338 48.0493 135.968 47.3562 135.398 46.7776C134.843 46.1989 134.118 45.7548 133.224 45.4453C132.33 45.1223 131.297 44.9609 130.125 44.9609C128.768 44.9609 127.589 45.1829 126.587 45.627C125.6 46.0711 124.837 46.7036 124.297 47.5245C123.758 48.3454 123.488 49.3143 123.488 50.4312C123.488 51.5482 123.921 52.5186 124.461 53.3395C125 54.1604 125.8 54.6404 126.787 55.0845C127.789 55.5286 128.791 55.6661 130.148 55.6661C131.32 55.6661 132.33 55.394 133.224 55.0845C134.118 54.775 134.812 54.3544 135.367 53.7758C135.937 53.1836 136.338 52.402 136.508 51.5945L139.729 51.74Z" fill="#202020"/>
<path fill-rule="evenodd" clip-rule="evenodd" d="M140.165 51.4428L140.107 51.9096C139.942 53.2247 139.405 54.3974 138.494 55.4181C138.494 55.4183 138.494 55.4185 138.494 55.4187L138.111 55.1609L138.494 55.4181C138.494 55.4181 138.494 55.418 138.494 55.4181C137.602 56.4222 136.433 57.1987 134.999 57.7503C133.561 58.3037 131.932 58.5752 130.121 58.5752C128.101 58.5752 126.307 58.2338 124.751 57.5373C123.201 56.843 121.984 55.874 121.112 54.6316L121.111 54.6297C120.237 53.3695 119.807 51.9171 119.807 50.2866C119.807 48.6566 120.237 47.2104 121.112 45.9628C121.983 44.7071 123.2 43.7307 124.751 43.0359C126.307 42.3394 128.101 41.998 130.121 41.998C131.932 41.998 133.561 42.2695 134.999 42.8229C136.432 43.3743 137.601 44.1503 138.493 45.1538C139.405 46.1626 139.942 47.3365 140.107 48.6641L140.164 49.1305H136.122L136.049 48.7851C135.893 48.0439 135.555 47.4197 135.041 46.9008L135.038 46.8987L135.036 46.8965C134.535 46.3763 133.874 45.9701 133.04 45.6829L133.037 45.6817L133.034 45.6806C132.203 45.3821 131.228 45.2272 130.098 45.2272C128.793 45.2272 127.684 45.4394 126.755 45.8483C125.843 46.257 125.145 46.8341 124.649 47.584C124.155 48.332 123.899 49.2278 123.899 50.2866C123.899 51.3454 124.155 52.2412 124.649 52.9892C125.145 53.7391 125.843 54.3162 126.755 54.7248C127.684 55.1338 128.793 55.346 130.098 55.346C131.23 55.346 132.207 55.1973 133.04 54.9106C133.874 54.6233 134.535 54.2172 135.036 53.697L135.037 53.6963C135.554 53.1624 135.893 52.5297 136.049 51.7881L136.122 51.4428H140.165ZM126.534 55.1C125.541 54.6551 124.772 54.0214 124.229 53.1989C123.685 52.3765 123.413 51.4057 123.413 50.2866C123.413 49.1675 123.685 48.1968 124.229 47.3743C124.772 46.5519 125.541 45.9182 126.534 45.4732C127.544 45.0283 128.732 44.8058 130.098 44.8058C131.278 44.8058 132.318 44.9676 133.219 45.2912C134.12 45.6013 134.849 46.0463 135.408 46.626C135.983 47.2058 136.356 47.9002 136.526 48.7091H139.624C139.607 48.5667 139.584 48.4262 139.558 48.2878C139.35 47.2076 138.867 46.2492 138.11 45.4126C137.272 44.4688 136.169 43.734 134.803 43.2081C133.436 42.6823 131.876 42.4194 130.121 42.4194C128.165 42.4194 126.449 42.7497 124.974 43.4104C123.499 44.071 122.35 44.9946 121.527 46.1811C120.704 47.3541 120.292 48.7226 120.292 50.2866C120.292 51.8506 120.704 53.2259 121.527 54.4124C122.35 55.5854 123.499 56.5022 124.974 57.1629C126.449 57.8235 128.165 58.1538 130.121 58.1538C131.876 58.1538 133.436 57.8909 134.803 57.3651C136.169 56.8393 137.272 56.1045 138.11 55.1607C138.866 54.3132 139.349 53.3548 139.557 52.2854C139.584 52.1469 139.606 52.0064 139.624 51.8641H136.526C136.356 52.6731 135.983 53.3742 135.408 53.9674C134.849 54.5472 134.12 54.9921 133.219 55.3022C132.318 55.6123 131.278 55.7674 130.098 55.7674C128.732 55.7674 127.544 55.5449 126.534 55.1Z" fill="#202020"/>
<path d="M142.347 57.9933L142.492 42.3877H145.837V56.5756L144.173 55.3946H151.404C152.464 55.3946 153.301 55.1639 153.915 54.7025C154.529 54.2278 154.836 53.6016 154.836 52.8237C154.836 52.0327 154.448 51.6203 153.834 51.1588C153.22 50.6842 152.422 50.5772 151.362 50.5772H143.874V48.117H151.543C152.848 48.117 153.976 48.3148 154.928 48.7103C155.88 49.1058 156.617 49.6595 157.139 50.3715C157.661 51.0702 158.051 51.8877 158.051 52.8237C158.051 53.7466 157.992 54.8093 157.47 55.5212C156.948 56.22 155.95 57.0161 154.998 57.4116C154.046 57.8071 152.667 57.9933 151.362 57.9933H142.347ZM159.81 42.6785H163.141V57.9933H159.81V42.6785Z" fill="#202020"/>
<path fill-rule="evenodd" clip-rule="evenodd" d="M142.201 58.2836V42.2881H146.184V47.8444H151.693C153.048 47.8444 154.246 48.0551 155.272 48.4926C156.293 48.9279 157.098 49.5442 157.669 50.3429C158.244 51.1327 158.523 52.0484 158.523 53.0741C158.523 54.0884 158.243 55.0028 157.67 55.8038L157.668 55.8068C157.096 56.5921 156.292 57.2008 155.272 57.6354C154.246 58.0729 153.048 58.2836 151.693 58.2836H142.201ZM157.266 50.5687C156.746 49.8413 156.012 49.2756 155.064 48.8715C154.116 48.4674 152.992 48.2653 151.693 48.2653H145.706V42.709H142.679V57.8626H151.693C152.992 57.8626 154.116 57.6606 155.064 57.2565C156.012 56.8524 156.746 56.2934 157.266 55.5795C157.786 54.8521 158.046 54.017 158.046 53.0741C158.046 52.1177 157.786 51.2826 157.266 50.5687ZM145.706 55.7007H151.555C152.61 55.7007 153.443 55.465 154.055 54.9936C154.666 54.5086 154.972 53.8688 154.972 53.0741C154.972 52.2659 154.666 51.6261 154.055 51.1546C153.443 50.6697 152.61 50.4273 151.555 50.4273H145.706V55.7007ZM146.184 50.8482V55.2798H151.555C152.528 55.2798 153.237 55.0638 153.738 54.6787C154.237 54.2821 154.494 53.7612 154.494 53.0741C154.494 52.3698 154.234 51.8521 153.74 51.4714L153.738 51.4695L153.735 51.4675C153.234 51.07 152.526 50.8482 151.555 50.8482H146.184ZM159.448 42.2881H163.432V58.2836H159.448V42.2881ZM159.926 42.709V57.8626H162.954V42.709H159.926Z" fill="#202020"/>
<mask id="path-22-inside-1_619_1520" fill="white">
<path d="M46.2644 60.997C45.6735 61.1893 45.3487 61.825 45.5583 62.41C48.1492 69.6426 52.8617 75.9367 59.0918 80.4616C65.6258 85.2073 73.4939 87.7636 81.5694 87.7646C89.6449 87.7655 97.5137 85.2109 104.049 80.4668C110.28 75.9432 114.994 69.6502 117.586 62.4182C117.796 61.8333 117.471 61.1975 116.881 61.0051L116.318 60.8219C115.727 60.6294 115.094 60.9533 114.883 61.5378C112.477 68.1994 108.125 73.9957 102.379 78.1668C96.3295 82.5586 89.0453 84.9233 81.5697 84.9225C74.0941 84.9216 66.8105 82.5552 60.762 78.1621C55.0173 73.9897 50.6665 68.1924 48.2622 61.5302C48.0512 60.9457 47.418 60.6217 46.8271 60.8139L46.2644 60.997Z"/>
</mask>
<path d="M46.2644 60.997C45.6735 61.1893 45.3487 61.825 45.5583 62.41C48.1492 69.6426 52.8617 75.9367 59.0918 80.4616C65.6258 85.2073 73.4939 87.7636 81.5694 87.7646C89.6449 87.7655 97.5137 85.2109 104.049 80.4668C110.28 75.9432 114.994 69.6502 117.586 62.4182C117.796 61.8333 117.471 61.1975 116.881 61.0051L116.318 60.8219C115.727 60.6294 115.094 60.9533 114.883 61.5378C112.477 68.1994 108.125 73.9957 102.379 78.1668C96.3295 82.5586 89.0453 84.9233 81.5697 84.9225C74.0941 84.9216 66.8105 82.5552 60.762 78.1621C55.0173 73.9897 50.6665 68.1924 48.2622 61.5302C48.0512 60.9457 47.418 60.6217 46.8271 60.8139L46.2644 60.997Z" fill="#F7612C" stroke="#F7612C" stroke-width="5.626" mask="url(#path-22-inside-1_619_1520)"/>
<mask id="path-23-inside-2_619_1520" fill="white">
<path d="M52.4488 60.6813C52.285 60.7347 52.1953 60.911 52.2503 61.0743C54.2883 67.1242 58.1489 72.3985 63.3056 76.1705C68.5463 80.004 74.8602 82.0918 81.3533 82.1381C87.8463 82.1845 94.1893 80.1871 99.4843 76.4287C104.694 72.7307 108.63 67.5121 110.754 61.4919C110.811 61.3293 110.724 61.1518 110.561 61.0961V61.0961C110.398 61.0404 110.221 61.1276 110.163 61.2901C108.081 67.1864 104.226 72.2975 99.123 75.9197C93.9349 79.6023 87.7198 81.5594 81.3577 81.514C74.9957 81.4686 68.8091 79.4229 63.6741 75.6667C58.6231 71.972 54.8412 66.8064 52.8438 60.881C52.7887 60.7177 52.6127 60.6279 52.4488 60.6813V60.6813Z"/>
</mask>
<path d="M52.4488 60.6813C52.285 60.7347 52.1953 60.911 52.2503 61.0743C54.2883 67.1242 58.1489 72.3985 63.3056 76.1705C68.5463 80.004 74.8602 82.0918 81.3533 82.1381C87.8463 82.1845 94.1893 80.1871 99.4843 76.4287C104.694 72.7307 108.63 67.5121 110.754 61.4919C110.811 61.3293 110.724 61.1518 110.561 61.0961V61.0961C110.398 61.0404 110.221 61.1276 110.163 61.2901C108.081 67.1864 104.226 72.2975 99.123 75.9197C93.9349 79.6023 87.7198 81.5594 81.3577 81.514C74.9957 81.4686 68.8091 79.4229 63.6741 75.6667C58.6231 71.972 54.8412 66.8064 52.8438 60.881C52.7887 60.7177 52.6127 60.6279 52.4488 60.6813V60.6813Z" fill="#F7612C" stroke="#F7612C" stroke-width="5.626" mask="url(#path-23-inside-2_619_1520)"/>
<path d="M116.164 63.5492L134.62 60.9926L116.064 61.0368C116.06 61.0368 116.056 61.0406 116.056 61.0452L116.155 63.5416C116.155 63.5463 116.16 63.5499 116.164 63.5492Z" fill="#F7612C" stroke="#F7612C" stroke-width="0.551329"/>
<path d="M47.237 63.5492L28.397 61.0375L47.238 61.0375C47.2424 61.0375 47.246 61.0411 47.246 61.0455L47.246 63.5412C47.246 63.5461 47.2418 63.5498 47.237 63.5492Z" fill="#F7612C" stroke="#F7612C" stroke-width="0.551329"/>
<mask id="path-26-inside-3_619_1520" fill="white">
<path d="M46.43 39.0347C45.6812 38.7995 45.2623 38.0008 45.5251 37.2613C48.0871 30.0507 52.7575 23.7627 58.9451 19.2236C65.5152 14.4039 73.4525 11.8078 81.6009 11.8136C89.7492 11.8193 97.6829 14.4266 104.246 19.2556C110.427 23.8035 115.089 30.0982 117.641 37.3123C117.902 38.0522 117.482 38.8504 116.733 39.0844V39.0844C115.984 39.3185 115.19 38.8998 114.926 38.1607C112.556 31.5241 108.255 25.734 102.562 21.5449C96.4861 17.0746 89.1419 14.661 81.5988 14.6557C74.0558 14.6503 66.7082 17.0535 60.6262 21.5152C54.9267 25.6962 50.6178 31.4802 48.2386 38.1135C47.9736 38.8522 47.1788 39.2698 46.43 39.0347V39.0347Z"/>
</mask>
<path d="M46.43 39.0347C45.6812 38.7995 45.2623 38.0008 45.5251 37.2613C48.0871 30.0507 52.7575 23.7627 58.9451 19.2236C65.5152 14.4039 73.4525 11.8078 81.6009 11.8136C89.7492 11.8193 97.6829 14.4266 104.246 19.2556C110.427 23.8035 115.089 30.0982 117.641 37.3123C117.902 38.0522 117.482 38.8504 116.733 39.0844V39.0844C115.984 39.3185 115.19 38.8998 114.926 38.1607C112.556 31.5241 108.255 25.734 102.562 21.5449C96.4861 17.0746 89.1419 14.661 81.5988 14.6557C74.0558 14.6503 66.7082 17.0535 60.6262 21.5152C54.9267 25.6962 50.6178 31.4802 48.2386 38.1135C47.9736 38.8522 47.1788 39.2698 46.43 39.0347V39.0347Z" fill="#F7612C" stroke="#F7612C" stroke-width="5.626" mask="url(#path-26-inside-3_619_1520)"/>
<mask id="path-27-inside-4_619_1520" fill="white">
<path d="M52.3884 39.0844C52.2242 39.032 52.1334 38.8563 52.1873 38.6926C54.2093 32.5602 58.1003 27.2112 63.3181 23.3984C68.62 19.5243 75.0169 17.4372 81.5834 17.4392C88.1499 17.4412 94.5456 19.5321 99.8451 23.4094C105.061 27.2253 108.948 32.5767 110.967 38.7104C111.021 38.8741 110.93 39.0497 110.765 39.102V39.102C110.601 39.1542 110.426 39.0632 110.372 38.8995C108.394 32.892 104.585 27.6508 99.4766 23.9132C94.2839 20.114 88.0173 18.0653 81.5832 18.0634C75.1492 18.0614 68.8813 20.1064 63.6864 23.9024C58.5755 27.637 54.7638 32.8759 52.7821 38.8821C52.7281 39.0458 52.5527 39.1367 52.3884 39.0844V39.0844Z"/>
</mask>
<path d="M52.3884 39.0844C52.2242 39.032 52.1334 38.8563 52.1873 38.6926C54.2093 32.5602 58.1003 27.2112 63.3181 23.3984C68.62 19.5243 75.0169 17.4372 81.5834 17.4392C88.1499 17.4412 94.5456 19.5321 99.8451 23.4094C105.061 27.2253 108.948 32.5767 110.967 38.7104C111.021 38.8741 110.93 39.0497 110.765 39.102V39.102C110.601 39.1542 110.426 39.0632 110.372 38.8995C108.394 32.892 104.585 27.6508 99.4766 23.9132C94.2839 20.114 88.0173 18.0653 81.5832 18.0634C75.1492 18.0614 68.8813 20.1064 63.6864 23.9024C58.5755 27.637 54.7638 32.8759 52.7821 38.8821C52.7281 39.0458 52.5527 39.1367 52.3884 39.0844V39.0844Z" fill="#F7612C" stroke="#F7612C" stroke-width="5.626" mask="url(#path-27-inside-4_619_1520)"/>
<line x1="62.9722" y1="1.07821" x2="99.3599" y2="1.07821" stroke="#F7612C" stroke-width="2.15608"/>
<path d="M61.33 11.8625L62.5847 0.281968C62.5851 0.277893 62.5885 0.274804 62.5926 0.274804L65.0525 0.274803C65.0551 0.274803 65.0558 0.275282 65.056 0.275385C65.0567 0.275716 65.0578 0.276543 65.059 0.278101C65.0601 0.279659 65.0605 0.281021 65.0607 0.281723C65.0607 0.281941 65.0609 0.282798 65.0601 0.285285L61.3456 11.8658C61.3448 11.8684 61.344 11.8704 61.3433 11.8719C61.3414 11.872 61.339 11.8718 61.3363 11.8712C61.3336 11.8706 61.3313 11.8698 61.3296 11.869C61.3296 11.8674 61.3297 11.8652 61.33 11.8625Z" fill="#F7612C" stroke="#F7612C" stroke-width="0.551329"/>
<path d="M101.255 11.8625L100 0.281968C99.9999 0.277893 99.9964 0.274804 99.9923 0.274804L97.5325 0.274803C97.5299 0.274803 97.5291 0.275282 97.5289 0.275385C97.5283 0.275716 97.5271 0.276543 97.526 0.278101C97.5249 0.279659 97.5244 0.281021 97.5243 0.281723C97.5243 0.281941 97.524 0.282798 97.5248 0.285285L101.239 11.8658C101.24 11.8684 101.241 11.8704 101.242 11.8719C101.244 11.872 101.246 11.8718 101.249 11.8712C101.251 11.8706 101.254 11.8698 101.255 11.869C101.255 11.8674 101.255 11.8652 101.255 11.8625Z" fill="#F7612C" stroke="#F7612C" stroke-width="0.551329"/>
<path d="M46.6807 36.3119L28.2516 38.8238L46.7525 38.8238C46.757 38.8238 46.7606 38.8201 46.7605 38.8156L46.6898 36.3196C46.6897 36.3148 46.6854 36.3112 46.6807 36.3119Z" fill="#F7612C" stroke="#F7612C" stroke-width="0.551329"/>
<path d="M116.192 36.3245L134.674 38.874L116.306 38.874C116.301 38.874 116.298 38.8706 116.298 38.8663L116.183 36.3328C116.183 36.3307 116.183 36.3299 116.183 36.3295C116.184 36.3288 116.184 36.3277 116.186 36.3266C116.187 36.3255 116.188 36.3249 116.189 36.3246C116.189 36.3245 116.19 36.3242 116.192 36.3245Z" fill="#F7612C" stroke="#F7612C" stroke-width="0.551329"/>
<line x1="99.7192" y1="97.9228" x2="63.3315" y2="97.9228" stroke="#F7612C" stroke-width="2.15608"/>
<path d="M101.257 87.1365L100.002 98.7171C100.002 98.7211 99.9984 98.7242 99.9943 98.7242L97.5344 98.7242C97.5318 98.7242 97.5311 98.7237 97.5309 98.7236C97.5302 98.7233 97.5291 98.7225 97.5279 98.7209C97.5268 98.7194 97.5264 98.718 97.5263 98.7173C97.5262 98.7171 97.526 98.7162 97.5268 98.7137L101.241 87.1332C101.242 87.1306 101.243 87.1286 101.244 87.1271C101.246 87.1271 101.248 87.1272 101.251 87.1278C101.253 87.1284 101.256 87.1292 101.257 87.13C101.257 87.1317 101.257 87.1338 101.257 87.1365Z" fill="#F7612C" stroke="#F7612C" stroke-width="0.551329"/>
<path d="M61.3349 87.1365L62.5895 98.7171C62.59 98.7211 62.5934 98.7242 62.5975 98.7242L65.0574 98.7242C65.06 98.7242 65.0607 98.7237 65.0609 98.7236C65.0615 98.7233 65.0627 98.7225 65.0639 98.7209C65.065 98.7194 65.0654 98.718 65.0655 98.7173C65.0656 98.7171 65.0658 98.7162 65.065 98.7137L61.3505 87.1332C61.3497 87.1306 61.3489 87.1286 61.3482 87.1271C61.3463 87.1271 61.3439 87.1272 61.3412 87.1278C61.3385 87.1284 61.3362 87.1292 61.3345 87.13C61.3345 87.1317 61.3346 87.1338 61.3349 87.1365Z" fill="#F7612C" stroke="#F7612C" stroke-width="0.551329"/>
</svg>
