<svg width="112" height="69" viewBox="0 0 112 69" fill="none" xmlns="http://www.w3.org/2000/svg">
<path d="M67.3364 45.4172V41.3486H67.9351V42.8714L67.9177 42.8889V44.9057H69.888C70.105 44.9057 70.289 44.8709 70.4402 44.8011C70.5913 44.7314 70.7056 44.6345 70.7831 44.5105C70.8606 44.3865 70.8993 44.2412 70.8993 44.0746C70.8993 43.908 70.8606 43.7627 70.7831 43.6387C70.7056 43.5108 70.5913 43.412 70.4402 43.3422C70.289 43.2725 70.105 43.2376 69.888 43.2376H67.7375V42.7261H69.888C70.2367 42.7261 70.5312 42.7823 70.7715 42.8947C71.0117 43.0071 71.1919 43.164 71.312 43.3655C71.436 43.567 71.498 43.8033 71.498 44.0746C71.498 44.3419 71.436 44.5764 71.312 44.7779C71.1919 44.9793 71.0117 45.1363 70.7715 45.2486C70.5312 45.361 70.2367 45.4172 69.888 45.4172H67.3364Z" fill="#202020"/>
<path d="M62.8387 45.4864C62.2885 45.4864 61.8177 45.3953 61.4263 45.2132C61.035 45.0311 60.7366 44.7812 60.5312 44.4634C60.3298 44.1418 60.229 43.7815 60.229 43.3824C60.229 42.9832 60.3298 42.6248 60.5312 42.3071C60.7366 41.9855 61.035 41.7336 61.4263 41.5515C61.8177 41.3694 62.2885 41.2783 62.8387 41.2783C63.3541 41.2783 63.7958 41.3519 64.1639 41.4992C64.532 41.6426 64.8207 41.8402 65.0299 42.092C65.243 42.3439 65.3825 42.6287 65.4484 42.9464H64.8497C64.7955 42.7333 64.6889 42.5396 64.5301 42.3652C64.3712 42.1908 64.1503 42.0513 63.8675 41.9467C63.5846 41.8421 63.2417 41.7898 62.8387 41.7898C62.4163 41.7898 62.0521 41.8595 61.746 41.999C61.4438 42.1385 61.2151 42.3284 61.0602 42.5686C60.9052 42.8089 60.8277 43.0801 60.8277 43.3824C60.8277 43.6846 60.9052 43.9558 61.0602 44.1961C61.2151 44.4363 61.4438 44.6262 61.746 44.7657C62.0521 44.9052 62.4163 44.9749 62.8387 44.9749C63.2417 44.9749 63.5846 44.9226 63.8675 44.818C64.1503 44.7134 64.3712 44.5739 64.5301 44.3995C64.6889 44.2251 64.7955 44.0314 64.8497 43.8183H65.4484C65.3864 44.1476 65.2508 44.4363 65.0415 44.6843C64.8362 44.9323 64.5475 45.128 64.1755 45.2713C63.8074 45.4147 63.3618 45.4864 62.8387 45.4864Z" fill="#202020"/>
<path d="M54.6465 45.4172V41.3486H58.5407V41.8601H55.2451V44.9057H58.5407V45.4172H54.6465ZM55.1638 43.5922V43.1097H58.1338V43.5922H55.1638Z" fill="#202020"/>
<path d="M47.4487 46.4343V44.9057H47.6928C47.8517 44.9057 47.9796 44.8515 48.0765 44.743C48.1772 44.6345 48.2411 44.4562 48.2683 44.2083L48.5937 41.3486H52.2322V44.9057H52.8716V46.4343H52.2903V45.4172H48.03V46.4343H47.4487ZM48.2683 44.9755V44.9057H51.651V41.8601H49.1227L48.8669 44.1559C48.8359 44.4427 48.77 44.6519 48.6693 44.7837C48.5724 44.9115 48.4387 44.9755 48.2683 44.9755Z" fill="#202020"/>
<path d="M43.8867 45.4864C43.3675 45.4864 42.9413 45.4283 42.608 45.312C42.2787 45.1958 42.0384 45.0388 41.8873 44.8412C41.7362 44.6397 41.6606 44.4111 41.6606 44.1554V44.0508H42.2593V44.1554C42.2593 44.2988 42.3136 44.4324 42.422 44.5564C42.5305 44.6804 42.7068 44.7812 42.951 44.8587C43.1951 44.9362 43.507 44.9749 43.8867 44.9749C44.4796 44.9749 44.8981 44.911 45.1422 44.7831C45.3863 44.6514 45.5084 44.4789 45.5084 44.2658C45.5084 44.0682 45.4037 43.9074 45.1945 43.7834C44.9891 43.6594 44.6481 43.5974 44.1715 43.5974H43.0614V43.115H44.1715C44.621 43.115 44.9465 43.0549 45.148 42.9348C45.3495 42.8108 45.4502 42.6558 45.4502 42.4698C45.4502 42.3458 45.4018 42.2335 45.3049 42.1327C45.2081 42.032 45.0434 41.9506 44.8109 41.8886C44.5784 41.8227 44.2703 41.7898 43.8867 41.7898C43.5225 41.7898 43.2222 41.8285 42.9858 41.906C42.7533 41.9835 42.5829 42.0843 42.4744 42.2083C42.3697 42.3323 42.3174 42.466 42.3174 42.6093V42.6849H41.7188V42.5919C41.7188 42.3439 41.7924 42.1211 41.9396 41.9235C42.0908 41.7259 42.3271 41.5689 42.6487 41.4527C42.9742 41.3364 43.3869 41.2783 43.8867 41.2783C44.4021 41.2783 44.8206 41.3287 45.1422 41.4294C45.4638 41.5302 45.6943 41.6639 45.8338 41.8305C45.9772 41.9932 46.0489 42.1753 46.0489 42.3768C46.0489 42.5512 46.0043 42.7081 45.9152 42.8476C45.83 42.9832 45.704 43.0917 45.5374 43.1731C45.3708 43.2506 45.1712 43.2894 44.9388 43.2894H44.8458L45.1306 43.1208V43.5335L44.8458 43.3649H44.9562C45.1964 43.3649 45.4018 43.4075 45.5723 43.4928C45.7467 43.5742 45.8784 43.6865 45.9675 43.8299C46.0605 43.9733 46.107 44.136 46.107 44.3181C46.107 44.5467 46.0373 44.7482 45.8978 44.9226C45.7583 45.097 45.5238 45.2345 45.1945 45.3353C44.8651 45.436 44.4292 45.4864 43.8867 45.4864Z" fill="#202020"/>
<path fill-rule="evenodd" clip-rule="evenodd" d="M25.8871 37.1135L25.8862 37.1123C25.2923 36.291 25 35.3441 25 34.2808C25 33.218 25.2921 32.2751 25.8866 31.4619C26.4786 30.6435 27.3062 30.008 28.3606 29.556C29.4173 29.103 30.6333 28.8809 32 28.8809C33.3666 28.8809 34.5827 29.103 35.6394 29.556C36.6938 30.008 37.5214 30.6436 38.1134 31.462C38.7079 32.2751 39 33.218 39 34.2808C39 35.3441 38.7077 36.291 38.1138 37.1123L38.1129 37.1135C37.5206 37.9232 36.6931 38.554 35.6394 39.0057C34.5827 39.4587 33.3666 39.6808 32 39.6808C30.6333 39.6808 29.4173 39.4587 28.3606 39.0057C27.3069 38.554 26.4793 37.9232 25.8871 37.1135ZM35.7438 36.0373L35.7448 36.0358C36.0924 35.5495 36.2724 34.968 36.2724 34.2808C36.2724 33.5936 36.0924 33.0122 35.7448 32.5259L35.7438 32.5244L35.7428 32.523C35.4032 32.0347 34.9229 31.6577 34.293 31.3905C33.664 31.1236 32.9032 30.9846 32 30.9846C31.1083 30.9846 30.3468 31.1232 29.7061 31.3908C29.0765 31.6581 28.5906 32.0353 28.2406 32.5244C27.9027 33.0109 27.7275 33.593 27.7275 34.2808C27.7275 34.9687 27.9027 35.5507 28.2406 36.0372C28.5906 36.5263 29.0764 36.9035 29.7059 37.1708C30.3466 37.4385 31.1082 37.5771 32 37.5771C32.9032 37.5771 33.664 37.4381 34.293 37.1712C34.9229 36.904 35.4032 36.527 35.7428 36.0387L35.7438 36.0373ZM29.5623 37.4167C28.8791 37.1269 28.346 36.714 27.963 36.1782C27.5904 35.6424 27.4041 35.0099 27.4041 34.2808C27.4041 33.5518 27.5904 32.9193 27.963 32.3835C28.346 31.8477 28.8791 31.4348 29.5623 31.1449C30.2558 30.8551 31.0684 30.7101 32 30.7101C32.9419 30.7101 33.7545 30.8551 34.4377 31.1449C35.1209 31.4348 35.6488 31.8477 36.0214 32.3835C36.4044 32.9193 36.5959 33.5518 36.5959 34.2808C36.5959 35.0099 36.4044 35.6424 36.0214 36.1782C35.6488 36.714 35.1209 37.1269 34.4377 37.4167C33.7545 37.7066 32.9419 37.8516 32 37.8516C31.0684 37.8516 30.2558 37.7066 29.5623 37.4167ZM28.5065 38.7607C29.5105 39.1911 30.675 39.4063 32 39.4063C33.3249 39.4063 34.4894 39.1911 35.4935 38.7607C36.4976 38.3303 37.2791 37.733 37.838 36.9688C38.397 36.1958 38.6765 35.2998 38.6765 34.2808C38.6765 33.2619 38.397 32.3703 37.838 31.6061C37.2791 30.8331 36.4976 30.2314 35.4935 29.801C34.4894 29.3706 33.3249 29.1554 32 29.1554C30.675 29.1554 29.5105 29.3706 28.5065 29.801C27.5024 30.2314 26.7209 30.8331 26.1619 31.6061C25.603 32.3703 25.3235 33.2619 25.3235 34.2808C25.3235 35.2998 25.603 36.1958 26.1619 36.9688C26.7209 37.733 27.5024 38.3303 28.5065 38.7607Z" fill="#202020"/>
<path d="M4.83486 30.0259H6.7657V39.6298H4.83486V30.0259ZM0.300293 29.1631H5.80028L11.3003 29.0801V30.7886H0.300293V29.1631Z" fill="#202020"/>
<path d="M31.8479 39.4801C30.5288 39.4801 29.3694 39.2659 28.3697 38.8376C27.3701 38.4094 26.592 37.815 26.0355 37.0546C25.4789 36.2855 25.2007 35.3939 25.2007 34.3801C25.2007 33.3662 25.4789 32.479 26.0355 31.7186C26.592 30.9495 27.2609 30.2084 28.2605 29.7801C29.2602 29.3518 30.5288 29.0801 31.8479 29.0801C33.1671 29.0801 34.601 29.3518 35.6007 29.7801C36.6003 30.2084 37.4111 30.9109 37.9676 31.6801C38.5241 32.4405 38.8007 33.3662 38.8007 34.3801C38.8007 35.3939 38.3572 36.2855 37.8007 37.0546C37.2441 37.815 36.2239 38.5518 35.2243 38.9801C34.2246 39.4083 33.1671 39.4801 31.8479 39.4801ZM31.8479 37.7801C32.7857 37.7801 33.489 37.6685 34.1692 37.3801C34.8493 37.0916 35.4807 36.8011 35.8517 36.268C36.233 35.7348 36.4237 35.1055 36.4237 34.3801C36.4237 33.6546 36.233 33.0253 35.8517 32.4922C35.4807 31.959 34.9551 31.5482 34.2749 31.2598C33.5947 30.9713 32.7857 30.8271 31.8479 30.8271C30.9204 30.8271 30.1114 30.9713 29.4209 31.2598C28.7407 31.5482 28.3253 32.0469 27.944 32.5801C27.573 33.1132 27.4164 33.6546 27.4164 34.3801C27.4164 35.1055 27.6785 35.6469 28.0495 36.1801C28.4308 36.7132 28.8465 37.0916 29.5267 37.3801C30.2171 37.6685 30.9204 37.7801 31.8479 37.7801Z" fill="#202020"/>
<path d="M40.6909 39.4808V29.2129H42.6565V35.8724C42.6565 36.3711 42.6272 36.7965 42.5685 37.1485C42.5196 37.4908 42.4462 37.8624 42.3485 38.2634H42.5538L49.228 29.2129H52.411V39.4808H50.4455V32.8213C50.4455 32.3226 50.4699 31.9021 50.5188 31.5598C50.5677 31.2078 50.6459 30.8313 50.7535 30.4304H50.5335L43.874 39.4808H40.6909Z" fill="#202020"/>
<path fill-rule="evenodd" clip-rule="evenodd" d="M40.3853 39.7864V28.9072H42.962V35.8723C42.962 36.3802 42.9323 36.8222 42.8704 37.1952C42.8631 37.2465 42.8552 37.2985 42.8468 37.351L49.0736 28.9072H52.7166V39.7864H50.1398V32.8213C50.1398 32.3141 50.1646 31.8784 50.2161 31.5173C50.2242 31.4591 50.233 31.4004 50.2426 31.3411L44.0285 39.7864H40.3853ZM50.5334 30.4303H50.7534C50.7412 30.4759 50.7294 30.5211 50.7179 30.5661C50.7033 30.6232 50.6894 30.6798 50.676 30.7359C50.6741 30.7439 50.6722 30.7519 50.6703 30.7599C50.6045 31.0392 50.554 31.3059 50.5187 31.5598C50.4698 31.902 50.4454 32.3225 50.4454 32.8213V39.4808H52.411V29.2128H49.2279L42.5537 38.2633H42.3484C42.3589 38.22 42.3692 38.1771 42.3792 38.1345C42.3932 38.0749 42.4066 38.016 42.4194 37.9577C42.4223 37.9448 42.4251 37.9319 42.4279 37.919C42.487 37.6475 42.5338 37.3906 42.5684 37.1485C42.6271 36.7964 42.6564 36.371 42.6564 35.8723V29.2128H40.6908V39.4808H43.8739L50.5334 30.4303Z" fill="#202020"/>
<path d="M12.6909 39.4808V29.2129H20.4065C21.5311 29.2129 22.377 29.4427 22.9442 29.9023C23.5114 30.3521 23.795 30.9682 23.795 31.7505C23.795 32.2004 23.6972 32.5915 23.5016 32.924C23.3158 33.2565 23.0469 33.5205 22.6948 33.7161C22.3428 33.9117 21.9321 34.0193 21.4627 34.0388L21.712 33.4374V34.8456L21.448 34.2589C22.2988 34.2784 22.9638 34.5082 23.4429 34.9483C23.9221 35.3883 24.1617 35.98 24.1617 36.7232C24.1617 37.3001 24.0297 37.794 23.7656 38.2047C23.5016 38.6154 23.0909 38.9332 22.5335 39.1581C21.9761 39.3733 21.2622 39.4808 20.3919 39.4808H12.6909ZM20.2892 37.838C20.9053 37.838 21.3649 37.7157 21.668 37.4713C21.9712 37.2268 22.1228 36.8845 22.1228 36.4445C22.1228 35.9946 21.9712 35.6475 21.668 35.403C21.3649 35.1487 20.9053 35.0216 20.2892 35.0216H14.2018V33.5254H20.0985C20.6364 33.5254 21.0471 33.4081 21.3307 33.1734C21.6143 32.9289 21.756 32.6013 21.756 32.1906C21.756 31.7799 21.6143 31.4572 21.3307 31.2225C21.0471 30.978 20.6364 30.8558 20.0985 30.8558H14.6858V37.838H20.2892Z" fill="#202020"/>
<path fill-rule="evenodd" clip-rule="evenodd" d="M12.3853 39.7864V28.9072H20.4065C21.5644 28.9072 22.4912 29.1425 23.1353 29.6638C23.7812 30.1767 24.1005 30.8841 24.1005 31.7505C24.1005 32.2444 23.993 32.6899 23.7666 33.076C23.5516 33.4596 23.2409 33.7622 22.8432 33.9832C22.7529 34.0334 22.6596 34.0782 22.5634 34.1178C22.9811 34.2439 23.3454 34.4438 23.6496 34.7231C24.201 35.2295 24.4672 35.9077 24.4672 36.7231C24.4672 37.3478 24.3237 37.9015 24.0226 38.3699C23.7172 38.845 23.2501 39.1984 22.6478 39.4415L22.6456 39.4423L22.6434 39.4432C22.0388 39.6765 21.2841 39.7864 20.3918 39.7864H12.3853ZM22.0176 33.9687C22.2633 33.9146 22.4891 33.8303 22.6948 33.716C23.0468 33.5205 23.3157 33.2564 23.5015 32.9239C23.6971 32.5915 23.7949 32.2003 23.7949 31.7505C23.7949 30.9681 23.5113 30.3521 22.9441 29.9022C22.3769 29.4426 21.5311 29.2128 20.4065 29.2128H12.6908V39.4808H20.3918C21.2621 39.4808 21.976 39.3732 22.5334 39.1581C23.0908 38.9331 23.5015 38.6153 23.7656 38.2046C24.0296 37.7939 24.1616 37.3001 24.1616 36.7231C24.1616 35.9799 23.922 35.3883 23.4429 34.9482C23.0764 34.6117 22.6013 34.3981 22.0176 34.3075C21.9909 34.3034 21.964 34.2995 21.9369 34.2959C21.8894 34.2895 21.8412 34.2839 21.7922 34.2792C21.7657 34.2766 21.7389 34.2742 21.712 34.2721V34.0195C21.7438 34.0158 21.7753 34.0117 21.8065 34.0072C21.8479 34.0012 21.8887 33.9944 21.929 33.9868C21.9588 33.9812 21.9883 33.9752 22.0176 33.9687ZM20.0984 33.5254C20.6363 33.5254 21.047 33.408 21.3306 33.1733C21.6142 32.9288 21.756 32.6012 21.756 32.1905C21.756 31.7798 21.6142 31.4571 21.3306 31.2224C21.047 30.9779 20.6363 30.8557 20.0984 30.8557H14.6858V33.5254H20.0984ZM14.6858 37.8379H20.2891C20.9052 37.8379 21.3648 37.7157 21.668 37.4712C21.9711 37.2267 22.1227 36.8844 22.1227 36.4444C22.1227 35.9946 21.9711 35.6474 21.668 35.4029C21.3648 35.1487 20.9052 35.0215 20.2891 35.0215H14.6858V37.8379ZM14.9914 35.3271V37.5323H20.2891C20.8735 37.5323 21.251 37.4149 21.4761 37.2333C21.6974 37.0549 21.8171 36.8056 21.8171 36.4444C21.8171 36.0709 21.6957 35.8179 21.4761 35.6408L21.4738 35.639L21.4716 35.6371C21.2469 35.4486 20.8714 35.3271 20.2891 35.3271H14.9914ZM14.9914 33.2198H20.0984C20.5952 33.2198 20.9249 33.1112 21.1334 32.9398C21.3411 32.7597 21.4504 32.5208 21.4504 32.1905C21.4504 31.859 21.3405 31.6273 21.1358 31.4578L21.1334 31.4559L21.1311 31.4539C20.9229 31.2744 20.5945 31.1613 20.0984 31.1613H14.9914V33.2198Z" fill="#202020"/>
<path fill-rule="evenodd" clip-rule="evenodd" d="M6.76462 30.7821V39.5914H4.83535V30.7821H0.304493V29.1703H11.2955V30.7821H6.76462ZM4.53086 31.0716H0V28.8809H11.6V31.0716H7.06911V39.8808H4.53086V31.0716Z" fill="#202020"/>
<path d="M61.9665 36.1137C60.3456 36.1137 59.0203 35.653 58.1627 34.9249C57.3052 34.1969 57.0005 33.0798 57.0005 31.6983V29.0801H59.2194V31.5567C59.2194 32.4621 59.3534 33.1544 59.9181 33.6305C60.4828 34.0972 61.3142 34.3305 62.4122 34.3305C63.0397 34.3305 63.6985 34.2652 64.3887 34.1345C65.0789 33.9945 65.7639 33.8032 66.4436 33.5605L66.6156 35.2221C65.9254 35.5115 65.1835 35.6578 64.3887 35.8165C63.6044 35.9659 62.7508 36.1137 61.9665 36.1137ZM65.9816 39.6801V29.0801H68.2005V39.6801H65.9816Z" fill="#202020"/>
<path fill-rule="evenodd" clip-rule="evenodd" d="M56.7998 28.8809H59.4657V31.6297C59.4657 32.4735 59.7233 33.0724 60.1933 33.4747C60.6657 33.87 61.3882 34.0914 62.4156 34.0914C63.0041 34.0914 63.6257 34.0293 64.2811 33.9036C64.7677 33.8034 65.2519 33.676 65.7339 33.5213V28.8809H68.3998V39.8808H65.7339V35.7017C65.3027 35.8416 64.8543 35.9586 64.3889 36.0528L64.3873 36.0531L64.3858 36.0534C63.5968 36.2058 62.8069 36.2821 62.0165 36.2821C60.379 36.2821 59.0757 35.9087 58.1579 35.1186C57.2374 34.326 56.7998 33.1933 56.7998 31.7686V28.8809ZM65.7339 35.3935C65.8417 35.3573 65.9483 35.3197 66.0537 35.2805V39.5914H68.08V29.1703H66.0537V33.7241C66.0524 33.7245 66.0511 33.7249 66.0499 33.7253C65.9447 33.7608 65.8393 33.7951 65.7339 33.828C65.2749 33.9715 64.8136 34.0909 64.3498 34.1863C63.6743 34.316 63.0296 34.3808 62.4156 34.3808C61.341 34.3808 60.5275 34.1493 59.9748 33.6861C59.4222 33.2137 59.1459 32.5282 59.1459 31.6297V29.1703H57.1196V31.7686C57.1196 33.1396 57.5392 34.1863 58.3784 34.9088C59.2175 35.6314 60.4302 35.9926 62.0165 35.9926C62.784 35.9926 63.5515 35.9185 64.3191 35.7703C64.8112 35.6707 65.2828 35.5451 65.7339 35.3935Z" fill="#202020"/>
<path d="M69.4785 39.4808L74.5832 29.2129H76.9741L82.0788 39.4808H79.9225L76.402 32.2053C76.2162 31.8043 76.0842 31.467 76.006 31.1931C75.9278 30.9193 75.8886 30.6749 75.8886 30.4597V30.4304H75.6686V30.4597C75.6686 30.6749 75.6295 30.9193 75.5513 31.1931C75.473 31.467 75.341 31.8043 75.1552 32.2053L71.6348 39.4808H69.4785ZM71.6641 37.5886L72.4416 35.9897H79.1304L79.8491 37.5886H71.6641Z" fill="#202020"/>
<path fill-rule="evenodd" clip-rule="evenodd" d="M68.9858 39.7864L74.3943 28.9072H77.164L82.5725 39.7864H79.7314L78.8158 37.8941H72.7425L71.8269 39.7864H68.9858ZM72.5509 37.5885H79.0074L79.923 39.4808H82.0793L76.9746 29.2128H74.5837L69.479 39.4808H71.6353L72.5509 37.5885ZM76.4026 32.2052C76.2168 31.8043 76.0848 31.4669 76.0065 31.1931C75.9769 31.0894 75.9529 30.99 75.9345 30.8948C75.9043 30.7384 75.8892 30.5934 75.8892 30.4596V30.4303H75.6691V30.4596C75.6691 30.5934 75.654 30.7384 75.6238 30.8948C75.6054 30.99 75.5814 31.0895 75.5518 31.1931C75.4736 31.4669 75.3415 31.8043 75.1557 32.2052L73.3246 35.9897H78.2338L76.4026 32.2052ZM77.7464 35.6841L76.1264 32.336L76.1253 32.3337C75.9794 32.0188 75.8633 31.7367 75.7792 31.4888C75.695 31.7367 75.5789 32.0188 75.433 32.3337L75.4319 32.336L73.8119 35.6841H77.7464Z" fill="#202020"/>
<path d="M95.6997 35.5801C95.5937 36.4315 95.1491 37.3685 94.5659 38.0256C93.9934 38.6734 93.2406 39.1777 92.3076 39.5387C91.3746 39.8996 90.3091 40.0801 89.111 40.0801C87.7751 40.0801 86.6036 39.8533 85.5963 39.3998C84.5891 38.9464 83.8045 38.3171 83.2426 37.5119C82.6807 36.6975 82.1997 35.8536 82.1997 34.7801C82.1997 33.7065 82.4378 32.5852 82.9997 31.7801C83.5616 30.9657 84.3925 30.2335 85.3997 29.7801C86.4069 29.3266 87.7592 29.0801 89.0951 29.0801C90.2932 29.0801 91.4667 29.2192 92.3997 29.5801C93.3327 29.941 94.1272 30.6035 94.6997 31.2513C95.2828 31.8991 95.6937 32.7366 95.7997 33.5973H93.4845C93.3679 33.042 93.1134 32.5654 92.7211 32.1675C92.3394 31.7695 91.8411 31.4641 91.2262 31.2513C90.6113 31.0292 89.9009 30.9181 89.0951 30.9181C88.1621 30.9181 87.351 31.0708 86.6619 31.3762C85.9833 31.6816 85.4585 32.1166 85.0874 32.6811C84.7163 33.2456 84.5308 33.9119 84.5308 34.6801C84.5308 35.4482 84.8286 36.1155 85.1997 36.6801C85.5708 37.2446 86.1211 37.5747 86.7997 37.8801C87.4889 38.1855 88.178 38.2801 89.111 38.2801C89.9168 38.2801 90.6113 38.0929 91.2262 37.8801C91.8411 37.6672 92.318 37.378 92.6997 36.9801C93.092 36.5729 93.3679 36.0353 93.4845 35.4801L95.6997 35.5801Z" fill="#202020"/>
<path fill-rule="evenodd" clip-rule="evenodd" d="M96 35.3759L95.9598 35.697C95.8466 36.6014 95.4771 37.4078 94.8511 38.1097C94.851 38.1098 94.8508 38.11 94.8507 38.1101L94.5872 37.9329L94.8511 38.1097C94.8511 38.1097 94.8511 38.1097 94.8511 38.1097C94.2376 38.8002 93.4335 39.3342 92.4477 39.7136C91.4586 40.0942 90.3382 40.2808 89.093 40.2808C87.7038 40.2808 86.4697 40.0461 85.4002 39.5671C84.3341 39.0896 83.4971 38.4232 82.8976 37.5688L82.8968 37.5676C82.2956 36.7009 82 35.7021 82 34.5808C82 33.4599 82.2954 32.4654 82.8972 31.6074C83.4963 30.7438 84.3334 30.0724 85.4002 29.5946C86.4697 29.1156 87.7038 28.8809 89.093 28.8809C90.3382 28.8809 91.4586 29.0675 92.4477 29.4481C93.433 29.8273 94.2369 30.361 94.8502 31.051C95.4776 31.7448 95.8468 32.552 95.9598 33.465L95.9995 33.7858H93.2197L93.1695 33.5483C93.0619 33.0386 92.8295 32.6093 92.476 32.2525L92.4745 32.251L92.473 32.2495C92.1281 31.8917 91.674 31.6124 91.1003 31.4149L91.098 31.4141L91.0957 31.4133C90.5244 31.208 89.8537 31.1015 89.077 31.1015C88.1795 31.1015 87.4167 31.2475 86.7783 31.5287C86.151 31.8097 85.6708 32.2066 85.33 32.7223C84.9901 33.2367 84.8137 33.8527 84.8137 34.5808C84.8137 35.309 84.9901 35.925 85.33 36.4394C85.6708 36.9551 86.151 37.3519 86.7782 37.633C87.4166 37.9142 88.1794 38.0602 89.077 38.0602C89.8553 38.0602 90.5276 37.9579 91.1003 37.7607C91.674 37.5632 92.1281 37.2839 92.473 36.9261L92.4735 36.9256C92.829 36.5585 93.0618 36.1234 93.1695 35.6134L93.2197 35.3759H96ZM86.6263 37.891C85.9429 37.585 85.4144 37.1492 85.0406 36.5836C84.6669 36.018 84.48 35.3504 84.48 34.5808C84.48 33.8113 84.6669 33.1437 85.0406 32.5781C85.4144 32.0125 85.9429 31.5767 86.6263 31.2707C87.3204 30.9648 88.1373 30.8118 89.077 30.8118C89.8885 30.8118 90.604 30.923 91.2233 31.1456C91.8426 31.3588 92.3445 31.6648 92.7289 32.0635C93.124 32.4622 93.3803 32.9397 93.4977 33.496H95.628C95.6159 33.3981 95.6007 33.3015 95.5823 33.2063C95.4393 32.4634 95.1075 31.8043 94.5869 31.229C94.0103 30.58 93.2521 30.0746 92.3125 29.713C91.3728 29.3514 90.2996 29.1706 89.093 29.1706C87.7475 29.1706 86.5676 29.3978 85.5532 29.8521C84.5387 30.3064 83.7486 30.9416 83.1826 31.7575C82.6167 32.5642 82.3337 33.5053 82.3337 34.5808C82.3337 35.6564 82.6167 36.6022 83.1826 37.4181C83.7486 38.2248 84.5387 38.8553 85.5532 39.3096C86.5676 39.7639 87.7475 39.9911 89.093 39.9911C90.2996 39.9911 91.3728 39.8103 92.3125 39.4487C93.2521 39.0871 94.0103 38.5817 94.5869 37.9327C95.1068 37.3499 95.4385 36.6908 95.5818 35.9554C95.6004 35.8601 95.6158 35.7635 95.628 35.6657H93.4977C93.3803 36.222 93.124 36.7041 92.7289 37.1121C92.3445 37.5108 91.8426 37.8168 91.2233 38.03C90.604 38.2433 89.8885 38.3499 89.077 38.3499C88.1373 38.3499 87.3204 38.1969 86.6263 37.891Z" fill="#202020"/>
<path d="M97.5 39.8803L97.6 29.1484H99.9V38.9054L98.7561 38.0932H103.729C104.457 38.0932 105.033 37.9346 105.455 37.6172C105.878 37.2908 106.089 36.8602 106.089 36.3252C106.089 35.7812 105.822 35.4976 105.4 35.1803C104.978 34.8539 104.428 34.7803 103.7 34.7803H98.5502V33.0884H103.824C104.721 33.0884 105.497 33.2244 106.152 33.4964C106.807 33.7684 107.313 34.1492 107.672 34.6388C108.031 35.1194 108.3 35.6815 108.3 36.3252C108.3 36.9599 108.259 37.6907 107.9 38.1803C107.541 38.6608 106.855 39.2083 106.2 39.4803C105.545 39.7523 104.597 39.8803 103.7 39.8803H97.5ZM109.509 29.3484H111.8V39.8803H109.509V29.3484Z" fill="#202020"/>
<path fill-rule="evenodd" clip-rule="evenodd" d="M97.3999 40.0801V29.0801H100.139V32.9011H103.927C104.859 32.9011 105.683 33.046 106.389 33.3469C107.091 33.6462 107.644 34.0701 108.037 34.6193C108.432 35.1624 108.625 35.7922 108.625 36.4975C108.625 37.195 108.431 37.8239 108.038 38.3747L108.036 38.3768C107.643 38.9168 107.09 39.3354 106.389 39.6343C105.683 39.9352 104.859 40.0801 103.927 40.0801H97.3999ZM107.76 34.7746C107.402 34.2744 106.898 33.8853 106.246 33.6074C105.594 33.3295 104.821 33.1906 103.927 33.1906H99.8104V29.3696H97.7285V39.7906H103.927C104.821 39.7906 105.594 39.6516 106.246 39.3737C106.898 39.0958 107.402 38.7114 107.76 38.2205C108.117 37.7203 108.296 37.146 108.296 36.4975C108.296 35.8399 108.117 35.2655 107.76 34.7746ZM99.8104 38.3038H103.832C104.558 38.3038 105.131 38.1417 105.552 37.8175C105.972 37.4841 106.182 37.0441 106.182 36.4975C106.182 35.9417 105.972 35.5017 105.552 35.1775C105.131 34.8441 104.558 34.6773 103.832 34.6773H99.8104V38.3038ZM100.139 34.9668V38.0144H103.832C104.501 38.0144 104.989 37.8659 105.333 37.601C105.677 37.3283 105.854 36.9701 105.854 36.4975C105.854 36.0132 105.675 35.6572 105.335 35.3954L105.333 35.3941L105.332 35.3927C104.987 35.1194 104.5 34.9668 103.832 34.9668H100.139ZM109.261 29.0801H112V40.0801H109.261V29.0801ZM109.589 29.3696V39.7906H111.671V29.3696H109.589Z" fill="#202020"/>
<mask id="path-22-inside-1_619_1475" fill="white">
<path d="M31.4247 41.9473C31.0183 42.0795 30.795 42.5167 30.9391 42.919C32.7209 47.8928 35.9616 52.2212 40.246 55.333C44.7394 58.5965 50.1502 60.3545 55.7037 60.3551C61.2572 60.3558 66.6684 58.599 71.1626 55.3365C75.4477 52.2257 78.6894 47.898 80.4723 42.9246C80.6165 42.5224 80.3933 42.0851 79.9869 41.9528L79.6 41.8268C79.1937 41.6945 78.7581 41.9172 78.613 42.3192C76.9585 46.9003 73.9656 50.8864 70.0143 53.7548C65.8541 56.775 60.8449 58.4012 55.7039 58.4006C50.563 58.4001 45.5541 56.7727 41.3946 53.7516C37.444 50.8823 34.452 46.8955 32.7986 42.3139C32.6535 41.912 32.218 41.6892 31.8117 41.8214L31.4247 41.9473Z"/>
</mask>
<path d="M31.4247 41.9473C31.0183 42.0795 30.795 42.5167 30.9391 42.919C32.7209 47.8928 35.9616 52.2212 40.246 55.333C44.7394 58.5965 50.1502 60.3545 55.7037 60.3551C61.2572 60.3558 66.6684 58.599 71.1626 55.3365C75.4477 52.2257 78.6894 47.898 80.4723 42.9246C80.6165 42.5224 80.3933 42.0851 79.9869 41.9528L79.6 41.8268C79.1937 41.6945 78.7581 41.9172 78.613 42.3192C76.9585 46.9003 73.9656 50.8864 70.0143 53.7548C65.8541 56.775 60.8449 58.4012 55.7039 58.4006C50.563 58.4001 45.5541 56.7727 41.3946 53.7516C37.444 50.8823 34.452 46.8955 32.7986 42.3139C32.6535 41.912 32.218 41.6892 31.8117 41.8214L31.4247 41.9473Z" fill="#F7612C" stroke="#F7612C" stroke-width="3.86896" mask="url(#path-22-inside-1_619_1475)"/>
<mask id="path-23-inside-2_619_1475" fill="white">
<path d="M35.6778 41.73C35.5651 41.7667 35.5035 41.888 35.5413 42.0003C36.9428 46.1608 39.5977 49.7878 43.1439 52.3818C46.748 55.0181 51.09 56.4539 55.5552 56.4857C60.0204 56.5176 64.3825 55.144 68.0238 52.5594C71.6067 50.0163 74.313 46.4275 75.7738 42.2874C75.8133 42.1757 75.7533 42.0536 75.6411 42.0153V42.0153C75.529 41.9769 75.4071 42.0369 75.3676 42.1487C73.936 46.2035 71.2848 49.7184 67.7753 52.2094C64.2075 54.7418 59.9334 56.0877 55.5583 56.0565C51.1831 56.0253 46.9287 54.6185 43.3974 52.0354C39.9238 49.4946 37.3231 45.9422 35.9494 41.8674C35.9116 41.7551 35.7905 41.6933 35.6778 41.73V41.73Z"/>
</mask>
<path d="M35.6778 41.73C35.5651 41.7667 35.5035 41.888 35.5413 42.0003C36.9428 46.1608 39.5977 49.7878 43.1439 52.3818C46.748 55.0181 51.09 56.4539 55.5552 56.4857C60.0204 56.5176 64.3825 55.144 68.0238 52.5594C71.6067 50.0163 74.313 46.4275 75.7738 42.2874C75.8133 42.1757 75.7533 42.0536 75.6411 42.0153V42.0153C75.529 41.9769 75.4071 42.0369 75.3676 42.1487C73.936 46.2035 71.2848 49.7184 67.7753 52.2094C64.2075 54.7418 59.9334 56.0877 55.5583 56.0565C51.1831 56.0253 46.9287 54.6185 43.3974 52.0354C39.9238 49.4946 37.3231 45.9422 35.9494 41.8674C35.9116 41.7551 35.7905 41.6933 35.6778 41.73V41.73Z" fill="#F7612C" stroke="#F7612C" stroke-width="3.86896" mask="url(#path-23-inside-2_619_1475)"/>
<path d="M79.4945 43.7026L92.1866 41.9444L79.4258 41.9748C79.4227 41.9748 79.4202 41.9774 79.4203 41.9806L79.4882 43.6974C79.4884 43.7006 79.4913 43.7031 79.4945 43.7026Z" fill="#F7612C" stroke="#F7612C" stroke-width="0.379145"/>
<path d="M32.0934 43.7026L19.1373 41.9753L32.0941 41.9753C32.0972 41.9753 32.0997 41.9778 32.0997 41.9808L32.0997 43.6971C32.0997 43.7004 32.0967 43.703 32.0934 43.7026Z" fill="#F7612C" stroke="#F7612C" stroke-width="0.379145"/>
<mask id="path-26-inside-3_619_1475" fill="white">
<path d="M31.5386 26.8441C31.0237 26.6824 30.7356 26.1331 30.9163 25.6246C32.6781 20.6659 35.89 16.3417 40.1451 13.2202C44.6633 9.90569 50.1218 8.1204 55.7253 8.12437C61.3289 8.12834 66.7848 9.92135 71.2983 13.2422C75.549 16.3698 78.7548 20.6985 80.5096 25.6597C80.6896 26.1685 80.4007 26.7174 79.8856 26.8783V26.8783C79.3704 27.0393 78.8242 26.7514 78.6427 26.2431C77.013 21.6791 74.0554 17.6973 70.14 14.8165C65.9618 11.7423 60.9112 10.0825 55.724 10.0789C50.5367 10.0752 45.4837 11.7278 41.3012 14.7961C37.3817 17.6714 34.4185 21.649 32.7823 26.2106C32.6001 26.7187 32.0535 27.0058 31.5386 26.8441V26.8441Z"/>
</mask>
<path d="M31.5386 26.8441C31.0237 26.6824 30.7356 26.1331 30.9163 25.6246C32.6781 20.6659 35.89 16.3417 40.1451 13.2202C44.6633 9.90569 50.1218 8.1204 55.7253 8.12437C61.3289 8.12834 66.7848 9.92135 71.2983 13.2422C75.549 16.3698 78.7548 20.6985 80.5096 25.6597C80.6896 26.1685 80.4007 26.7174 79.8856 26.8783V26.8783C79.3704 27.0393 78.8242 26.7514 78.6427 26.2431C77.013 21.6791 74.0554 17.6973 70.14 14.8165C65.9618 11.7423 60.9112 10.0825 55.724 10.0789C50.5367 10.0752 45.4837 11.7278 41.3012 14.7961C37.3817 17.6714 34.4185 21.649 32.7823 26.2106C32.6001 26.7187 32.0535 27.0058 31.5386 26.8441V26.8441Z" fill="#F7612C" stroke="#F7612C" stroke-width="3.86896" mask="url(#path-26-inside-3_619_1475)"/>
<mask id="path-27-inside-4_619_1475" fill="white">
<path d="M35.6363 26.8784C35.5234 26.8425 35.4609 26.7216 35.498 26.6091C36.8885 22.3918 39.5643 18.7133 43.1526 16.0913C46.7986 13.4271 51.1977 11.9919 55.7135 11.9932C60.2292 11.9946 64.6274 13.4325 68.2719 16.0989C71.8586 18.7231 74.5322 22.4032 75.9201 26.6212C75.9572 26.7338 75.8946 26.8546 75.7817 26.8905V26.8905C75.6687 26.9264 75.5481 26.8639 75.511 26.7513C74.1507 22.62 71.5316 19.0157 68.0184 16.4453C64.4475 13.8327 60.138 12.4238 55.7133 12.4225C51.2887 12.4211 46.9783 13.8274 43.4058 16.4379C39.8911 19.0061 37.2698 22.6089 35.907 26.7394C35.8699 26.8519 35.7492 26.9144 35.6363 26.8784V26.8784Z"/>
</mask>
<path d="M35.6363 26.8784C35.5234 26.8425 35.4609 26.7216 35.498 26.6091C36.8885 22.3918 39.5643 18.7133 43.1526 16.0913C46.7986 13.4271 51.1977 11.9919 55.7135 11.9932C60.2292 11.9946 64.6274 13.4325 68.2719 16.0989C71.8586 18.7231 74.5322 22.4032 75.9201 26.6212C75.9572 26.7338 75.8946 26.8546 75.7817 26.8905V26.8905C75.6687 26.9264 75.5481 26.8639 75.511 26.7513C74.1507 22.62 71.5316 19.0157 68.0184 16.4453C64.4475 13.8327 60.138 12.4238 55.7133 12.4225C51.2887 12.4211 46.9783 13.8274 43.4058 16.4379C39.8911 19.0061 37.2698 22.6089 35.907 26.7394C35.8699 26.8519 35.7492 26.9144 35.6363 26.8784V26.8784Z" fill="#F7612C" stroke="#F7612C" stroke-width="3.86896" mask="url(#path-27-inside-4_619_1475)"/>
<line x1="42.915" y1="0.742038" x2="67.9386" y2="0.742038" stroke="#F7612C" stroke-width="1.48272"/>
<path d="M41.7854 8.15787L42.6482 0.194024C42.6485 0.191221 42.6509 0.189097 42.6537 0.189097L44.3453 0.189096C44.347 0.189096 44.3476 0.189395 44.3478 0.189485L44.3478 0.189497C44.3482 0.189724 44.349 0.190292 44.3498 0.191364C44.3506 0.192436 44.3509 0.193373 44.351 0.193855C44.351 0.194005 44.3511 0.194594 44.3506 0.196305L41.7961 8.16015C41.7956 8.16195 41.795 8.16333 41.7946 8.16437C41.7934 8.16439 41.7918 8.1643 41.7897 8.16387C41.7877 8.16343 41.7862 8.16287 41.7851 8.16236C41.7851 8.16123 41.7852 8.15975 41.7854 8.15787Z" fill="#F7612C" stroke="#F7612C" stroke-width="0.379145"/>
<path d="M69.2419 8.15787L68.3791 0.194024C68.3788 0.191221 68.3764 0.189097 68.3736 0.189097L66.682 0.189096C66.6803 0.189096 66.6798 0.189395 66.6796 0.189485L66.6796 0.189497C66.6791 0.189724 66.6783 0.190292 66.6776 0.191364C66.6768 0.192436 66.6765 0.193373 66.6764 0.193855C66.6764 0.194005 66.6762 0.194594 66.6768 0.196305L69.2312 8.16015C69.2318 8.16195 69.2323 8.16333 69.2328 8.16437C69.234 8.16439 69.2356 8.1643 69.2376 8.16387C69.2396 8.16343 69.2411 8.16287 69.2422 8.16236C69.2422 8.16123 69.2421 8.15975 69.2419 8.15787Z" fill="#F7612C" stroke="#F7612C" stroke-width="0.379145"/>
<path d="M31.7112 24.9721L19.0377 26.6995L31.7606 26.6995C31.7637 26.6995 31.7662 26.6969 31.7661 26.6938L31.7175 24.9774C31.7174 24.9741 31.7145 24.9716 31.7112 24.9721Z" fill="#F7612C" stroke="#F7612C" stroke-width="0.379145"/>
<path d="M79.5136 24.9806L92.2233 26.7338L79.5917 26.7338C79.5888 26.7338 79.5864 26.7315 79.5862 26.7285L79.5073 24.9863C79.5071 24.9828 79.5102 24.9801 79.5136 24.9806Z" fill="#F7612C" stroke="#F7612C" stroke-width="0.379145"/>
<line x1="68.1851" y1="67.3419" x2="43.1615" y2="67.3419" stroke="#F7612C" stroke-width="1.48272"/>
<path d="M69.2424 59.9242L68.3796 67.888C68.3793 67.8908 68.3769 67.8929 68.3741 67.8929L66.6825 67.8929C66.6808 67.8929 66.6802 67.8926 66.6801 67.8925L66.6801 67.8925C66.6796 67.8923 66.6788 67.8917 66.678 67.8907C66.6773 67.8896 66.677 67.8887 66.6769 67.8882C66.6769 67.888 66.6767 67.8874 66.6772 67.8857L69.2317 59.9219C69.2323 59.9201 69.2328 59.9187 69.2333 59.9177C69.2344 59.9176 69.2361 59.9177 69.2381 59.9182C69.2401 59.9186 69.2416 59.9192 69.2427 59.9197C69.2427 59.9208 69.2426 59.9223 69.2424 59.9242Z" fill="#F7612C" stroke="#F7612C" stroke-width="0.379145"/>
<path d="M41.7883 59.9242L42.6512 67.888C42.6515 67.8908 42.6538 67.8929 42.6566 67.8929L44.3483 67.8929C44.35 67.8929 44.3505 67.8926 44.3507 67.8925L44.3507 67.8925C44.3511 67.8923 44.3519 67.8917 44.3527 67.8907C44.3535 67.8896 44.3538 67.8887 44.3539 67.8882C44.3539 67.888 44.3541 67.8874 44.3535 67.8857L41.7991 59.9219C41.7985 59.9201 41.798 59.9187 41.7975 59.9177C41.7963 59.9176 41.7947 59.9177 41.7927 59.9182C41.7906 59.9186 41.7891 59.9192 41.7881 59.9197C41.7881 59.9208 41.7881 59.9223 41.7883 59.9242Z" fill="#F7612C" stroke="#F7612C" stroke-width="0.379145"/>
</svg>
